PathFileType	4	(X/Y/Z)	c:/Users/goper/Files/vsCode/490R/osim_files/C11/C11_SSWS_04.trc
DataRate	CameraRate	NumFrames	NumMarkers	Units                	OrigDataRate	OrigDataStartFrame	OrigNumFrames
120.00	120.00	8	36	mm	120.0	580	1159
                Frame#	Time	LPSI			LASI			LTH1			LTH2			LTH3			LTH4			LLFE			LMFE			LSH1			LSH2			LSH3			LSH4			LLMA			LMMA			LCAL			LMTP			LTOE			LMTP			RPSI			RASI			RTH1			RTH2			RTH3			RTH4			RLFE			RMFE			RSH1			RSH2			RSH3			RSH4			RLMA			RMMA			RCAL			RMTP			RTOE			RMTP		
		X1	Y1	Z1	X2	Y2	Z2	X3	Y3	Z3	X4	Y4	Z4	X5	Y5	Z5	X6	Y6	Z6	X7	Y7	Z7	X8	Y8	Z8	X9	Y9	Z9	X10	Y10	Z10	X11	Y11	Z11	X12	Y12	Z12	X13	Y13	Z13	X14	Y14	Z14	X15	Y15	Z15	X16	Y16	Z16	X17	Y17	Z17	X18	Y18	Z18	X19	Y19	Z19	X20	Y20	Z20	X21	Y21	Z21	X22	Y22	Z22	X23	Y23	Z23	X24	Y24	Z24	X25	Y25	Z25	X26	Y26	Z26	X27	Y27	Z27	X28	Y28	Z28	X29	Y29	Z29	X30	Y30	Z30	X31	Y31	Z31	X32	Y32	Z32	X33	Y33	Z33	X34	Y34	Z34	X35	Y35	Z35	X36	Y36	Z36

580	4.82500	-240.41074	993.84509	315.91983	-419.43433	1006.71710	375.54984	-369.45602	610.64594	418.25153	-381.32767	564.38916	414.14081	-428.33414	618.10815	427.34491	-431.40298	572.45026	419.25177	-412.37628	500.93582	412.82187	-427.76120	510.07809	305.34564	-355.31894	399.88748	418.70215	-351.60693	355.26837	417.68958	-416.29456	389.38739	421.57214	-404.27771	346.03406	418.75998	-337.42633	94.16189	349.45383	-373.29907	111.17460	260.19733	-284.04749	59.94538	289.09564	-445.69214	40.82664	389.39392	-523.73090	58.79432	328.06769	-487.72342	44.74043	278.33093	-238.94319	1001.35791	232.07115	-399.43832	983.14435	144.55559	-448.53290	627.68878	105.86195	-469.87579	589.48920	111.05332	-506.90576	651.02667	105.36589	-517.98376	609.10278	109.83983	-516.56927	523.96588	122.36081	-506.40347	511.67120	235.25200	-417.08282	482.48901	113.20607	-389.41553	446.01318	113.04879	-461.64343	438.99777	112.22272	-425.28851	408.02124	109.79141	-213.93082	242.87785	146.72972	-247.12401	227.93690	237.76503	-148.93864	260.14832	205.71735	-289.63815	97.51541	211.79648	-297.95535	106.02618	161.49155	-245.42732	117.58874	107.35046
581	4.83333	-249.32155	995.34021	316.09470	-428.07642	1007.78577	376.50549	-372.21655	611.58386	418.54559	-383.32108	565.23743	414.60510	-431.15051	618.18805	427.98602	-433.49341	572.43109	420.17728	-413.39307	501.08804	413.53534	-429.58670	509.95169	306.28992	-355.15469	400.22601	418.49307	-351.25433	355.68811	417.51767	-416.14313	389.17957	422.07816	-403.78354	346.16046	419.39496	-337.40775	94.17147	349.44287	-373.29407	111.21349	260.24286	-283.97647	59.97532	289.10205	-445.62433	40.77663	389.45663	-523.68597	58.80597	328.11475	-487.36057	44.51149	278.50714	-247.90784	1003.20312	232.52541	-408.56049	985.51428	145.51021	-463.19797	631.79779	104.34238	-483.41956	593.85248	110.68755	-518.76947	655.68732	105.84658	-532.53107	614.41302	109.82101	-530.99396	528.97455	122.51898	-521.69611	515.71069	235.29501	-432.58282	483.39337	113.45088	-406.79962	445.70477	113.13820	-479.23315	442.10303	112.21187	-444.78149	409.66150	109.69356	-239.49060	235.55959	147.52725	-273.78842	221.95195	238.14503	-174.23257	249.53215	206.03680	-322.46515	93.83195	212.24123	-329.29074	102.41802	162.03381	-277.31903	111.70235	107.74479
582	4.84167	-258.08118	996.76971	316.36880	-436.64822	1008.70721	377.35052	-374.98926	612.53131	418.86426	-385.57635	565.89941	415.10785	-433.91882	618.24164	428.80264	-435.67328	572.42188	421.01550	-414.36673	501.12408	414.28186	-431.58102	509.70718	307.22260	-354.92984	400.74417	418.29880	-351.03375	356.03006	417.40967	-415.93350	389.15091	422.85233	-403.54602	346.16742	420.04413	-337.33380	94.22517	349.44788	-373.22241	111.20160	260.29953	-283.98083	59.97101	289.07480	-445.59149	40.72467	389.51535	-523.61682	58.78172	328.17123	-487.36664	44.54243	278.54449	-256.76807	1004.82599	232.85970	-417.84634	987.50787	146.46370	-476.68921	635.93927	103.05202	-499.03473	598.50452	108.39007	-534.77490	661.82520	105.27621	-546.54626	619.49390	109.81479	-545.65387	533.63440	122.47048	-536.16290	519.75513	234.87747	-448.34924	483.82971	113.42329	-423.99554	445.04990	113.18353	-496.60281	444.35797	112.50478	-463.14249	410.40250	110.05952	-265.79056	227.70361	147.80702	-300.80899	215.65215	238.41986	-200.12410	238.41803	206.23944	-355.52420	90.01853	212.49136	-362.67404	99.28250	162.52580	-309.85349	105.70309	108.03398
583	4.85000	-266.96387	997.91058	316.43182	-445.40393	1009.40692	378.20731	-377.87384	613.37231	419.18903	-387.70853	566.66803	415.66934	-436.93665	618.14886	429.49286	-437.96143	572.27612	421.91409	-415.50156	501.08920	414.97824	-433.53003	509.41708	308.09448	-355.43668	400.72772	418.48013	-350.38437	356.39587	417.61127	-416.02191	389.25073	423.78293	-403.50620	346.10022	420.63312	-337.32062	94.23531	349.44684	-373.19708	111.20351	260.35168	-285.61630	58.77253	288.34583	-445.58322	40.65199	389.57794	-523.59106	58.74115	328.20444	-487.37042	44.54876	278.57172	-265.80786	1006.29639	233.11879	-426.98090	989.12415	147.31654	-490.17780	639.96454	102.13517	-512.83203	602.64618	107.47725	-547.56879	666.40961	105.60589	-559.92987	624.06152	109.82931	-559.65332	537.67841	122.54131	-550.10797	523.43756	234.47316	-463.20337	483.77966	113.60022	-440.99329	443.81546	113.23722	-513.51978	446.91068	112.70277	-481.68204	411.06784	110.17110	-293.08673	219.33234	148.18089	-328.42896	208.92740	238.66382	-226.27505	226.98581	206.89766	-389.40366	86.34855	212.78900	-396.22809	96.13653	162.68907	-343.01151	99.67974	108.29879
584	4.85833	-275.72992	998.84082	316.56631	-453.94144	1009.80249	378.86731	-380.91559	614.16980	419.55576	-389.94058	567.28613	416.25427	-439.86029	618.07770	430.25507	-440.20044	572.17584	422.84879	-416.67798	500.99597	415.84415	-435.55643	509.01205	309.04010	-355.87582	400.88409	418.84357	-350.65662	356.51303	417.82468	-416.37589	388.85471	424.33621	-403.57617	345.96118	421.30450	-337.24255	94.20691	349.45587	-373.22311	111.19908	260.41266	-282.99924	60.65186	289.81265	-445.50012	40.54831	389.66516	-523.49158	58.64023	328.22266	-487.34732	44.52143	278.61148	-274.64981	1007.47314	233.39388	-436.26465	990.53363	148.11452	-503.05585	643.56506	101.37683	-526.17340	606.47479	106.73256	-560.15631	670.63300	105.95600	-574.02234	629.10553	109.62207	-573.26294	541.67328	122.67516	-564.25726	526.80969	234.41347	-478.08594	483.14383	113.56192	-457.53308	441.91937	113.08706	-530.02515	448.52347	113.09132	-499.96094	411.25165	110.40790	-320.78510	210.65274	148.45540	-356.89127	201.79308	238.79164	-253.49023	214.91513	207.17139	-423.54004	82.75068	213.03656	-430.05307	92.93021	162.79726	-376.37817	93.71780	108.65296
585	4.86667	-284.44208	999.69287	316.62183	-462.71484	1010.07867	379.56635	-383.87289	614.92401	419.89023	-392.36517	567.93384	416.76947	-442.90872	617.99982	430.99051	-442.66153	571.97870	423.57013	-418.09125	501.03406	416.62482	-437.74741	508.55759	310.03925	-356.48639	401.01950	419.39380	-351.21152	356.67310	418.35394	-417.09836	388.69211	425.02951	-404.03961	345.85559	421.99979	-337.23901	94.22707	349.47925	-373.20685	111.09087	260.43890	-283.08725	60.73132	289.81421	-445.49039	40.47289	389.75668	-523.39447	58.56517	328.24341	-486.83508	44.24875	278.73114	-283.69055	1008.46503	233.51941	-445.36298	991.59747	148.95306	-515.63708	646.66376	100.73909	-539.03577	609.84735	106.09607	-572.26294	674.42188	106.33497	-586.66986	633.05823	109.78562	-586.12891	544.85266	122.79495	-577.06238	529.74951	234.23921	-492.86676	481.91864	113.48394	-474.18216	439.77982	113.10844	-546.33759	449.64029	113.22244	-517.99420	411.05310	110.64863	-348.91159	201.74515	148.66643	-383.88733	195.02835	239.58812	-282.02411	202.09119	206.79932	-458.39618	79.62539	212.67468	-464.13065	89.79610	162.90001	-410.75089	87.71702	108.29540
586	4.87500	-293.31589	1000.26508	316.63168	-471.57034	1010.22589	380.28802	-387.11203	615.61859	420.32224	-394.76978	568.52704	417.35355	-446.10208	617.84357	431.76187	-445.28903	571.84845	424.43359	-419.74487	500.97409	417.42325	-439.91150	508.04559	310.95764	-357.57834	401.05682	420.14114	-351.96857	356.81268	419.01584	-418.06256	388.52719	425.78430	-404.81274	345.71167	422.56625	-337.28119	94.25943	349.51178	-373.23087	111.11679	260.57266	-283.08563	60.80121	289.80493	-445.52908	40.43703	389.84247	-523.21942	58.52584	328.33499	-486.86932	44.24962	278.80231	-292.70773	1009.19446	233.67960	-454.76160	992.36713	149.72545	-527.76343	649.07391	100.11159	-551.26459	612.95581	105.90727	-583.90643	677.58234	106.79055	-598.86401	636.26361	110.10501	-599.14160	548.76514	121.10880	-589.33429	532.16101	234.08107	-507.29730	480.19177	113.33893	-490.79752	437.30951	113.09012	-562.33954	450.59351	113.42254	-535.89154	410.48138	110.96308	-377.50690	192.79034	148.80466	-413.50806	187.56543	239.68256	-311.10367	189.13777	206.69121	-494.05371	77.21642	211.71774	-498.70926	87.24398	162.70598	-445.22372	82.19662	108.18916
587	4.88333	-302.10919	1000.70709	316.59668	-479.92038	1009.65973	381.08569	-390.39322	616.33099	420.63641	-397.42422	569.08734	417.95599	-449.41159	617.69061	432.47101	-448.01312	571.61584	425.21170	-421.57635	500.82632	418.11819	-442.08423	507.45773	311.92538	-358.70871	401.11444	420.94202	-353.43362	356.77817	419.70819	-419.26917	388.29816	426.48508	-405.88705	345.55161	423.27081	-337.26346	94.32642	349.52838	-373.72971	111.67725	260.75543	-283.03571	60.89513	289.78540	-445.50732	40.40641	389.90512	-523.19635	58.49898	328.31528	-486.89023	44.24263	278.84485	-301.71762	1009.75128	233.71063	-464.16382	992.82019	150.41281	-539.09375	651.51569	100.27020	-562.90906	615.22064	105.85060	-595.06085	680.19855	107.33879	-609.68396	639.94177	110.21500	-610.78467	551.02368	121.60480	-600.98669	533.97650	234.03265	-521.86261	477.72485	113.45815	-507.28641	434.34897	113.09258	-578.15027	450.49161	114.07906	-553.40118	409.48212	111.45229	-406.83566	183.53183	149.30568	-443.04819	180.35858	239.72104	-339.93375	176.76462	207.79633	-529.34045	73.87800	212.64758	-533.35406	84.95227	162.23650	-480.38760	77.31848	107.98082
